<svg width="84" height="21" viewBox="0 0 84 21" fill="none" xmlns="http://www.w3.org/2000/svg">
<circle cx="8" cy="10" r="7.5" stroke="#FE9013"/>
<path d="M29.2578 4.625L32.9766 13.9062L36.6953 4.625H38.6406V16H37.1406V11.5703L37.2812 6.78906L33.5469 16H32.3984L28.6719 6.8125L28.8203 11.5703V16H27.3203V4.625H29.2578ZM40.6797 11.6953C40.6797 10.8672 40.8411 10.1224 41.1641 9.46094C41.4922 8.79948 41.9453 8.28906 42.5234 7.92969C43.1068 7.57031 43.7708 7.39062 44.5156 7.39062C45.6667 7.39062 46.5964 7.78906 47.3047 8.58594C48.0182 9.38281 48.375 10.4427 48.375 11.7656V11.8672C48.375 12.6901 48.2161 13.4297 47.8984 14.0859C47.5859 14.737 47.1354 15.2448 46.5469 15.6094C45.9635 15.974 45.2917 16.1562 44.5312 16.1562C43.3854 16.1562 42.4557 15.7578 41.7422 14.9609C41.0339 14.1641 40.6797 13.1094 40.6797 11.7969V11.6953ZM42.1328 11.8672C42.1328 12.8047 42.349 13.5573 42.7812 14.125C43.2188 14.6927 43.8021 14.9766 44.5312 14.9766C45.2656 14.9766 45.849 14.6901 46.2812 14.1172C46.7135 13.5391 46.9297 12.7318 46.9297 11.6953C46.9297 10.7682 46.7083 10.0182 46.2656 9.44531C45.8281 8.86719 45.2448 8.57812 44.5156 8.57812C43.8021 8.57812 43.2266 8.86198 42.7891 9.42969C42.3516 9.9974 42.1328 10.8099 42.1328 11.8672ZM51.5547 7.54688L51.6016 8.60938C52.2474 7.79688 53.0911 7.39062 54.1328 7.39062C55.9193 7.39062 56.8203 8.39844 56.8359 10.4141V16H55.3906V10.4062C55.3854 9.79688 55.2448 9.34635 54.9688 9.05469C54.6979 8.76302 54.2734 8.61719 53.6953 8.61719C53.2266 8.61719 52.8151 8.74219 52.4609 8.99219C52.1068 9.24219 51.8307 9.57031 51.6328 9.97656V16H50.1875V7.54688H51.5547ZM60.9766 5.5V7.54688H62.5547V8.66406H60.9766V13.9062C60.9766 14.2448 61.0469 14.5 61.1875 14.6719C61.3281 14.8385 61.5677 14.9219 61.9062 14.9219C62.0729 14.9219 62.3021 14.8906 62.5938 14.8281V16C62.2135 16.1042 61.8438 16.1562 61.4844 16.1562C60.8385 16.1562 60.3516 15.9609 60.0234 15.5703C59.6953 15.1797 59.5312 14.625 59.5312 13.9062V8.66406H57.9922V7.54688H59.5312V5.5H60.9766ZM65.6953 8.57031C66.3359 7.78385 67.1693 7.39062 68.1953 7.39062C69.9818 7.39062 70.8828 8.39844 70.8984 10.4141V16H69.4531V10.4062C69.4479 9.79688 69.3073 9.34635 69.0312 9.05469C68.7604 8.76302 68.3359 8.61719 67.7578 8.61719C67.2891 8.61719 66.8776 8.74219 66.5234 8.99219C66.1693 9.24219 65.8932 9.57031 65.6953 9.97656V16H64.25V4H65.6953V8.57031ZM74.6328 16H73.1875V4H74.6328V16ZM79.7188 13.8828L81.6875 7.54688H83.2344L79.8359 17.3047C79.3099 18.7109 78.474 19.4141 77.3281 19.4141L77.0547 19.3906L76.5156 19.2891V18.1172L76.9062 18.1484C77.3958 18.1484 77.776 18.0495 78.0469 17.8516C78.3229 17.6536 78.5495 17.2917 78.7266 16.7656L79.0469 15.9062L76.0312 7.54688H77.6094L79.7188 13.8828Z" fill="#333B41"/>
</svg>
