<svg width="84" height="21" viewBox="0 0 84 21" fill="none" xmlns="http://www.w3.org/2000/svg">
<circle cx="8" cy="10" r="7.5" stroke="#FE9013"/>
<path d="M36.0703 10.6797C36.0703 11.7943 35.8828 12.7682 35.5078 13.6016C35.1328 14.4297 34.6016 15.0625 33.9141 15.5C33.2266 15.9375 32.4245 16.1562 31.5078 16.1562C30.612 16.1562 29.8177 15.9375 29.125 15.5C28.4323 15.0573 27.8932 14.4297 27.5078 13.6172C27.1276 12.7995 26.9323 11.8542 26.9219 10.7812V9.96094C26.9219 8.86719 27.112 7.90104 27.4922 7.0625C27.8724 6.22396 28.4089 5.58333 29.1016 5.14062C29.7995 4.69271 30.5964 4.46875 31.4922 4.46875C32.4036 4.46875 33.2057 4.6901 33.8984 5.13281C34.5964 5.57031 35.1328 6.20833 35.5078 7.04688C35.8828 7.88021 36.0703 8.85156 36.0703 9.96094V10.6797ZM34.5781 9.94531C34.5781 8.59635 34.3073 7.5625 33.7656 6.84375C33.224 6.11979 32.4661 5.75781 31.4922 5.75781C30.5443 5.75781 29.7969 6.11979 29.25 6.84375C28.7083 7.5625 28.4297 8.5625 28.4141 9.84375V10.6797C28.4141 11.987 28.6875 13.0156 29.2344 13.7656C29.7865 14.5104 30.5443 14.8828 31.5078 14.8828C32.4766 14.8828 33.2266 14.5312 33.7578 13.8281C34.2891 13.1198 34.5625 12.1068 34.5781 10.7891V9.94531ZM39.4609 7.54688L39.5078 8.60938C40.1536 7.79688 40.9974 7.39062 42.0391 7.39062C43.8255 7.39062 44.7266 8.39844 44.7422 10.4141V16H43.2969V10.4062C43.2917 9.79688 43.151 9.34635 42.875 9.05469C42.6042 8.76302 42.1797 8.61719 41.6016 8.61719C41.1328 8.61719 40.7214 8.74219 40.3672 8.99219C40.013 9.24219 39.737 9.57031 39.5391 9.97656V16H38.0938V7.54688H39.4609ZM50.3125 14.9766C50.8281 14.9766 51.2786 14.8203 51.6641 14.5078C52.0495 14.1953 52.263 13.8047 52.3047 13.3359H53.6719C53.6458 13.8203 53.4792 14.2812 53.1719 14.7188C52.8646 15.1562 52.4531 15.5052 51.9375 15.7656C51.4271 16.026 50.8854 16.1562 50.3125 16.1562C49.1615 16.1562 48.2448 15.7734 47.5625 15.0078C46.8854 14.237 46.5469 13.1849 46.5469 11.8516V11.6094C46.5469 10.7865 46.6979 10.0547 47 9.41406C47.3021 8.77344 47.7344 8.27604 48.2969 7.92188C48.8646 7.56771 49.5339 7.39062 50.3047 7.39062C51.2526 7.39062 52.0391 7.67448 52.6641 8.24219C53.2943 8.8099 53.6302 9.54688 53.6719 10.4531H52.3047C52.263 9.90625 52.0547 9.45833 51.6797 9.10938C51.3099 8.75521 50.8516 8.57812 50.3047 8.57812C49.5703 8.57812 49 8.84375 48.5938 9.375C48.1927 9.90104 47.9922 10.6641 47.9922 11.6641V11.9375C47.9922 12.9115 48.1927 13.6615 48.5938 14.1875C48.9948 14.7135 49.5677 14.9766 50.3125 14.9766ZM58.8047 16.1562C57.6589 16.1562 56.7266 15.7812 56.0078 15.0312C55.2891 14.276 54.9297 13.2682 54.9297 12.0078V11.7422C54.9297 10.9036 55.0885 10.1562 55.4062 9.5C55.7292 8.83854 56.1771 8.32292 56.75 7.95312C57.3281 7.57812 57.9531 7.39062 58.625 7.39062C59.724 7.39062 60.5781 7.7526 61.1875 8.47656C61.7969 9.20052 62.1016 10.237 62.1016 11.5859V12.1875H56.375C56.3958 13.0208 56.638 13.6953 57.1016 14.2109C57.5703 14.7214 58.1641 14.9766 58.8828 14.9766C59.3932 14.9766 59.8255 14.8724 60.1797 14.6641C60.5339 14.4557 60.8438 14.1797 61.1094 13.8359L61.9922 14.5234C61.2839 15.612 60.2214 16.1562 58.8047 16.1562ZM58.625 8.57812C58.0417 8.57812 57.5521 8.79167 57.1562 9.21875C56.7604 9.64062 56.5156 10.2344 56.4219 11H60.6562V10.8906C60.6146 10.1562 60.4167 9.58854 60.0625 9.1875C59.7083 8.78125 59.2292 8.57812 58.625 8.57812Z" fill="#333B41"/>
</svg>
